<?xml version="1.0" standalone="no"?>
<!DOCTYPE svg PUBLIC "-//W3C//DTD SVG 20010904//EN"
 "http://www.w3.org/TR/2001/REC-SVG-20010904/DTD/svg10.dtd">
<svg version="1.0" xmlns="http://www.w3.org/2000/svg"
 width="2400.000000pt" height="1800.000000pt" viewBox="0 0 2400.000000 1800.000000"
 preserveAspectRatio="xMidYMid meet">
<metadata>
Created by potrace 1.15, written by Peter Selinger 2001-2017
</metadata>
<g transform="translate(0.000000,1800.000000) scale(0.100000,-0.100000)"
fill="#000000" stroke="none">
<path d="M7810 8875 l0 -5405 3305 0 3305 0 0 5405 0 5405 -3305 0 -3305 0 0
-5405z m1796 5339 c46 -22 64 -50 64 -99 0 -49 -22 -83 -66 -101 -96 -40 -205
24 -191 112 14 84 110 127 193 88z m-666 -99 l0 -105 -85 0 -85 0 0 105 0 105
85 0 85 0 0 -105z m3375 0 l0 -90 -67 -3 -68 -3 0 96 0 96 68 -3 67 -3 0 -90z
m-3015 -2 c0 -72 -1 -75 -18 -60 -13 12 -42 17 -102 19 l-85 3 -3 58 -3 57
106 0 105 0 0 -77z m1650 -1644 l0 -230 -22 3 c-23 3 -23 3 -26 231 l-2 227
25 0 25 0 0 -231z m300 0 l0 -230 -22 3 c-23 3 -23 3 -26 231 l-2 227 25 0 25
0 0 -231z m435 30 c12 -18 -4 -57 -25 -64 -30 -10 -28 -70 3 -79 36 -9 57 -7
73 9 35 34 96 6 75 -34 -16 -28 -45 -34 -80 -17 -17 9 -45 16 -64 16 -29 0
-37 -6 -58 -42 -13 -24 -26 -56 -29 -73 -8 -47 -34 -39 -38 12 -2 33 1 44 16
52 11 6 22 18 26 27 5 14 -2 15 -59 9 -72 -8 -93 9 -25 20 38 6 40 9 40 41 0
27 4 34 20 34 16 0 20 -7 20 -30 0 -23 3 -28 16 -23 13 5 16 17 11 63 -2 31
-1 64 5 73 10 19 63 23 73 6z m-965 -1349 l0 -170 -55 0 -55 0 0 170 0 170 55
0 55 0 0 -170z m-865 60 l21 -85 19 88 18 87 62 0 62 0 19 -85 c20 -93 24 -92
45 18 l12 67 62 0 62 0 -42 -157 -42 -158 -68 0 -68 0 -22 90 -22 90 -11 -39
c-6 -22 -17 -63 -23 -93 l-12 -53 -67 0 -67 0 -42 154 c-22 85 -41 157 -41
161 0 3 28 5 62 3 l62 -3 21 -85z m1141 19 c28 -7 54 -23 69 -41 39 -46 33
-58 -28 -58 -41 0 -55 4 -65 20 -15 24 -54 26 -76 4 -35 -34 -11 -114 34 -114
29 0 50 11 50 26 0 10 15 14 56 14 53 0 55 -1 48 -22 -19 -65 -105 -98 -201
-78 -63 14 -103 52 -110 107 -15 110 89 176 223 142z m383 -14 c43 -22 64 -59
64 -110 0 -83 -56 -128 -158 -128 -91 0 -150 39 -155 103 -7 81 23 130 88 149
47 13 122 7 161 -14z m-883 -1 c38 -18 64 -58 64 -99 l0 -25 -105 0 c-107 0
-124 -7 -93 -38 17 -17 77 -15 84 3 7 18 114 22 114 4 0 -48 -62 -82 -150 -82
-83 -1 -137 23 -156 69 -28 67 -12 122 45 161 42 29 144 32 197 7z m1088 0 c5
-14 8 -14 28 0 29 20 107 21 136 1 19 -14 24 -14 51 0 17 8 50 15 75 15 36 0
48 -5 65 -26 18 -23 21 -41 21 -125 l0 -99 -55 0 -55 0 0 85 c0 70 -3 87 -16
92 -36 14 -49 -10 -52 -96 l-3 -81 -54 0 -55 0 0 85 c0 70 -3 87 -16 92 -36
14 -49 -10 -52 -96 l-3 -81 -54 0 -55 0 0 125 0 125 44 0 c31 0 46 -5 50 -16z
m682 0 c38 -18 64 -58 64 -99 l0 -25 -105 0 c-107 0 -124 -7 -93 -38 17 -17
77 -15 84 3 7 18 114 22 114 4 0 -48 -62 -83 -150 -83 -118 0 -178 50 -167
141 5 46 34 88 72 103 36 15 145 11 181 -6z m1000 -895 c66 -25 136 -85 167
-144 l22 -40 3 -2395 c2 -2096 0 -2401 -13 -2446 -19 -67 -80 -135 -153 -171
l-57 -28 -2100 -3 c-2319 -2 -2158 -7 -2247 61 -60 46 -96 102 -111 173 -10
52 -19 68 -58 106 -49 47 -79 114 -79 177 -1 30 -7 40 -39 62 -21 15 -48 46
-60 71 l-21 44 0 1935 0 1935 29 46 c16 25 42 54 59 63 26 16 30 25 35 76 6
69 41 136 91 174 28 21 35 34 40 77 15 112 91 196 211 234 32 10 474 13 2132
13 l2092 1 57 -21z"/>
<path d="M8790 14125 l0 -75 65 0 65 0 0 75 0 75 -65 0 -65 0 0 -75z"/>
<path d="M10930 9575 c0 -108 1 -115 20 -115 17 0 20 7 20 50 l0 50 65 0 65 0
0 -50 c0 -44 3 -50 20 -50 20 0 21 5 18 112 -3 98 -5 113 -20 116 -15 3 -18
-4 -18 -47 l0 -51 -65 0 -65 0 0 50 c0 43 -3 50 -20 50 -19 0 -20 -7 -20 -115z"/>
<path d="M10870 9030 c-30 -12 -62 -23 -71 -26 -9 -3 -37 1 -63 10 -90 31
-185 14 -258 -45 -36 -28 -39 -29 -82 -18 -25 6 -77 10 -115 7 -88 -5 -152
-42 -196 -112 -26 -43 -30 -59 -30 -120 1 -53 6 -81 22 -112 23 -43 79 -98
119 -116 26 -12 31 -27 12 -32 -95 -26 -130 -41 -166 -72 -71 -60 -94 -130
-71 -212 27 -95 150 -180 270 -185 47 -2 49 -3 64 -44 34 -88 174 -173 283
-173 174 1 402 168 402 293 0 27 13 33 64 27 14 -1 17 3 12 14 -3 9 -8 22 -11
29 -3 7 8 17 27 25 31 12 35 11 55 -13 28 -32 37 -31 52 1 15 33 6 46 -25 38
-24 -6 -25 -4 -22 27 4 40 5 40 123 10 131 -34 220 -37 302 -13 89 27 154 82
177 149 22 64 20 91 -10 152 -73 146 -274 194 -449 107 -41 -20 -102 -62 -134
-92 -33 -30 -62 -50 -66 -45 -3 6 12 33 34 61 22 28 57 84 77 124 58 119 47
220 -32 300 -72 71 -192 94 -294 56z"/>
<path d="M12078 8265 c-12 -14 -37 -28 -57 -31 -51 -9 -81 -30 -81 -58 0 -36
-36 -74 -73 -78 -24 -2 -32 -8 -32 -23 0 -28 -13 -45 -36 -45 -23 0 -25 -13
-4 -30 32 -26 18 -39 -37 -34 -29 3 -64 9 -78 14 -77 27 -144 40 -152 32 -5
-5 -8 -33 -6 -63 2 -42 7 -55 21 -57 10 -2 17 3 17 12 0 20 -1 20 90 -5 64
-18 185 -35 268 -38 17 -1 22 -7 22 -28 0 -14 12 -42 26 -61 21 -27 27 -45 26
-88 0 -29 -3 -57 -6 -62 -3 -5 -31 -22 -62 -37 -31 -15 -66 -37 -77 -48 -11
-11 -45 -33 -76 -49 -77 -39 -157 -91 -189 -121 -15 -14 -49 -35 -75 -47 -45
-20 -72 -53 -60 -73 3 -5 -2 -16 -12 -26 -15 -18 -14 -21 22 -50 21 -17 71
-45 113 -62 131 -55 189 -88 251 -145 33 -30 72 -60 87 -66 78 -31 239 -62
266 -52 12 5 13 10 6 25 -13 23 12 138 39 183 11 17 38 81 61 141 31 82 43
129 47 186 5 71 3 81 -23 128 -26 46 -32 51 -64 51 -57 0 -140 12 -140 20 0
11 55 21 145 27 44 3 86 9 92 15 8 6 13 34 13 70 0 82 25 153 64 182 17 13 62
38 100 55 76 34 166 98 166 118 0 7 -33 29 -72 49 -40 20 -74 40 -76 45 -5 12
-32 11 -32 -1 0 -5 5 -10 10 -10 25 0 6 -20 -25 -26 -19 -3 -35 -10 -35 -14 0
-15 30 -32 50 -27 17 4 49 -18 39 -27 -2 -2 -32 -13 -67 -25 -44 -15 -74 -19
-102 -15 -24 4 -52 1 -71 -6 -26 -11 -33 -11 -46 3 -14 14 -12 19 26 55 22 21
41 43 41 49 0 6 -16 30 -35 54 -19 24 -35 54 -35 67 0 17 -12 28 -54 47 -69
31 -91 31 -118 0z m142 -138 c12 -21 12 -32 2 -60 -7 -18 -12 -54 -12 -79 0
-25 -9 -65 -20 -89 -12 -28 -16 -47 -10 -53 14 -14 12 -68 -3 -86 -21 -26 -70
-47 -74 -32 -3 6 -13 12 -24 12 -10 0 -19 5 -19 10 0 6 -6 10 -14 10 -7 0 -25
11 -39 24 -23 21 -25 29 -17 50 5 15 6 26 2 26 -4 0 5 11 20 25 15 14 33 25
39 25 21 0 49 32 49 57 0 16 -10 30 -33 43 -19 11 -40 31 -47 45 -13 23 -11
27 26 60 33 30 45 35 75 31 20 -2 43 0 50 5 20 12 32 6 49 -24z"/>
<path d="M11090 6941 c0 -28 27 -70 79 -122 l58 -59 28 22 c27 21 27 22 6 29
-23 9 -28 38 -9 57 18 18 -6 35 -85 60 -77 25 -77 25 -77 13z"/>
<path d="M10810 5380 c-11 -11 -20 -31 -20 -45 0 -57 88 -87 130 -45 43 43 10
110 -55 110 -22 0 -43 -8 -55 -20z"/>
<path d="M9418 3179 c-65 -32 -118 -61 -118 -64 0 -6 237 -125 250 -125 6 0
10 47 10 125 0 94 -3 125 -12 124 -7 0 -66 -27 -130 -60z m120 -165 c-5 -5
-197 91 -197 98 -1 4 43 30 97 57 l97 49 3 -100 c1 -56 1 -102 0 -104z"/>
<path d="M11035 3221 c-69 -42 -90 -101 -57 -160 53 -97 226 -95 268 4 18 45
18 63 -4 104 -36 66 -142 93 -207 52z m152 -17 c60 -38 66 -123 13 -168 -101
-85 -264 11 -206 121 34 67 127 90 193 47z"/>
<path d="M12640 3115 l0 -125 150 0 150 0 0 125 0 125 -150 0 -150 0 0 -125z
m280 0 l0 -115 -130 0 -130 0 0 108 c0 60 3 112 7 115 3 4 62 7 130 7 l123 0
0 -115z"/>
</g>
</svg>
