<svg height="480pt" viewBox="0 0 480 480" width="480pt" xmlns="http://www.w3.org/2000/svg" xmlns:xlink="http://www.w3.org/1999/xlink"><linearGradient id="a"><stop offset="0" stop-color="#f9a86d"/><stop offset=".503" stop-color="#f05361"/><stop offset="1" stop-color="#b72563"/></linearGradient><linearGradient id="b" gradientUnits="userSpaceOnUse" x1="-8" x2="466.432" xlink:href="#a" y1="240" y2="240"/><linearGradient id="c" gradientUnits="userSpaceOnUse" x1="-8" x2="466.432" xlink:href="#a" y1="48" y2="48"/><linearGradient id="d" gradientUnits="userSpaceOnUse" x1="-8" x2="466.432" xlink:href="#a" y1="56" y2="56"/><linearGradient id="e" gradientUnits="userSpaceOnUse" x1="-8" x2="466.432" xlink:href="#a" y1="424" y2="424"/><linearGradient id="f" gradientUnits="userSpaceOnUse" x1="-8" x2="466.432" xlink:href="#a" y1="432" y2="432"/><linearGradient id="g" gradientUnits="userSpaceOnUse" x1="-8" x2="466.432" xlink:href="#a" y1="232" y2="232"/><linearGradient id="h" gradientUnits="userSpaceOnUse" x1="-8" x2="466.432" xlink:href="#a" y1="216" y2="216"/><linearGradient id="i" gradientUnits="userSpaceOnUse" x1="-8" x2="466.432" xlink:href="#a" y1="320" y2="320"/><path d="m24 144v192c.027344 22.082031 17.917969 39.972656 40 40h352c22.082031-.027344 39.972656-17.917969 40-40v-192c-.027344-22.082031-17.917969-39.972656-40-40h-352c-22.082031.027344-39.972656 17.917969-40 40zm416 0v192c0 13.253906-10.746094 24-24 24h-352c-13.253906 0-24-10.746094-24-24v-192c0-13.253906 10.746094-24 24-24h352c13.253906 0 24 10.746094 24 24zm0 0" fill="url(#b)"/><path d="m8 96c4.417969 0 8-3.582031 8-8v-72h72c4.417969 0 8-3.582031 8-8s-3.582031-8-8-8h-80c-4.417969 0-8 3.582031-8 8v80c0 4.417969 3.582031 8 8 8zm0 0" fill="url(#c)"/><path d="m48 72v-24h24c4.417969 0 8-3.582031 8-8s-3.582031-8-8-8h-32c-4.417969 0-8 3.582031-8 8v32c0 4.417969 3.582031 8 8 8s8-3.582031 8-8zm0 0" fill="url(#d)"/><path d="m40 448h32c4.417969 0 8-3.582031 8-8s-3.582031-8-8-8h-24v-24c0-4.417969-3.582031-8-8-8s-8 3.582031-8 8v32c0 4.417969 3.582031 8 8 8zm0 0" fill="url(#e)"/><path d="m448 408c0-4.417969-3.582031-8-8-8s-8 3.582031-8 8v24h-24c-4.417969 0-8 3.582031-8 8s3.582031 8 8 8h32c4.417969 0 8-3.582031 8-8zm0 0" fill="url(#e)"/><path d="m440 32h-32c-4.417969 0-8 3.582031-8 8s3.582031 8 8 8h24v24c0 4.417969 3.582031 8 8 8s8-3.582031 8-8v-32c0-4.417969-3.582031-8-8-8zm0 0" fill="url(#d)"/><path d="m472 0h-80c-4.417969 0-8 3.582031-8 8s3.582031 8 8 8h72v72c0 4.417969 3.582031 8 8 8s8-3.582031 8-8v-80c0-4.417969-3.582031-8-8-8zm0 0" fill="url(#c)"/><path d="m472 384c-4.417969 0-8 3.582031-8 8v72h-72c-4.417969 0-8 3.582031-8 8s3.582031 8 8 8h80c4.417969 0 8-3.582031 8-8v-80c0-4.417969-3.582031-8-8-8zm0 0" fill="url(#f)"/><path d="m8 480h80c4.417969 0 8-3.582031 8-8s-3.582031-8-8-8h-72v-72c0-4.417969-3.582031-8-8-8s-8 3.582031-8 8v80c0 4.417969 3.582031 8 8 8zm0 0" fill="url(#f)"/><path d="m64 320c0 4.417969 3.582031 8 8 8s8-3.582031 8-8v-176c0-4.417969-3.582031-8-8-8s-8 3.582031-8 8zm0 0" fill="url(#g)"/><g fill="url(#h)"><path d="m152 296c4.417969 0 8-3.582031 8-8v-144c0-4.417969-3.582031-8-8-8s-8 3.582031-8 8v144c0 4.417969 3.582031 8 8 8zm0 0"/><path d="m104 296c4.417969 0 8-3.582031 8-8v-144c0-4.417969-3.582031-8-8-8s-8 3.582031-8 8v144c0 4.417969 3.582031 8 8 8zm0 0"/><path d="m184 296c4.417969 0 8-3.582031 8-8v-144c0-4.417969-3.582031-8-8-8s-8 3.582031-8 8v144c0 4.417969 3.582031 8 8 8zm0 0"/><path d="m216 296c4.417969 0 8-3.582031 8-8v-144c0-4.417969-3.582031-8-8-8s-8 3.582031-8 8v144c0 4.417969 3.582031 8 8 8zm0 0"/><path d="m264 296c4.417969 0 8-3.582031 8-8v-144c0-4.417969-3.582031-8-8-8s-8 3.582031-8 8v144c0 4.417969 3.582031 8 8 8zm0 0"/><path d="m328 296c4.417969 0 8-3.582031 8-8v-144c0-4.417969-3.582031-8-8-8s-8 3.582031-8 8v144c0 4.417969 3.582031 8 8 8zm0 0"/><path d="m296 296c4.417969 0 8-3.582031 8-8v-144c0-4.417969-3.582031-8-8-8s-8 3.582031-8 8v144c0 4.417969 3.582031 8 8 8zm0 0"/><path d="m376 296c4.417969 0 8-3.582031 8-8v-144c0-4.417969-3.582031-8-8-8s-8 3.582031-8 8v144c0 4.417969 3.582031 8 8 8zm0 0"/></g><path d="m408 328c4.417969 0 8-3.582031 8-8v-176c0-4.417969-3.582031-8-8-8s-8 3.582031-8 8v176c0 4.417969 3.582031 8 8 8zm0 0" fill="url(#g)"/><path d="m368 312h16v16h-16zm0 0" fill="url(#i)"/><path d="m320 312h16v16h-16zm0 0" fill="url(#i)"/><path d="m288 312h16v16h-16zm0 0" fill="url(#i)"/><path d="m256 312h16v16h-16zm0 0" fill="url(#i)"/><path d="m208 312h16v16h-16zm0 0" fill="url(#i)"/><path d="m176 312h16v16h-16zm0 0" fill="url(#i)"/><path d="m144 312h16v16h-16zm0 0" fill="url(#i)"/><path d="m96 312h16v16h-16zm0 0" fill="url(#i)"/></svg>