<?xml version="1.0" encoding="iso-8859-1"?>
<!-- Generator: Adobe Illustrator 19.0.0, SVG Export Plug-In . SVG Version: 6.00 Build 0)  -->
<svg version="1.1" id="Capa_1" xmlns="http://www.w3.org/2000/svg" xmlns:xlink="http://www.w3.org/1999/xlink" x="0px" y="0px"
	 viewBox="0 0 511.992 511.992" style="enable-background:new 0 0 511.992 511.992;" xml:space="preserve">
<g>
	
		<linearGradient id="SVGID_1_" gradientUnits="userSpaceOnUse" x1="19.115" y1="629.6135" x2="-45.733" y2="629.6135" gradientTransform="matrix(8.5228 0 0 -8.5228 368.6503 5426.3701)">
		<stop  offset="0" style="stop-color:#4761AC"/>
		<stop  offset="1" style="stop-color:#54C2EF"/>
	</linearGradient>
	<path style="fill:url(#SVGID_1_);" d="M51.133,68.81c23.523,0.026,42.589,19.091,42.614,42.614c0,4.705,3.818,8.523,8.523,8.523
		s8.523-3.818,8.523-8.523c0.026-23.523,19.091-42.589,42.614-42.614c4.705,0,8.523-3.818,8.523-8.523s-3.818-8.523-8.523-8.523
		c-23.523-0.026-42.589-19.091-42.614-42.614c0-4.705-3.818-8.523-8.523-8.523s-8.523,3.818-8.523,8.523
		c-0.026,23.523-19.091,42.589-42.614,42.614c-4.705,0-8.523,3.818-8.523,8.523S46.428,68.81,51.133,68.81z M102.27,39.722
		c5.063,8.438,12.128,15.503,20.566,20.566c-8.438,5.063-15.503,12.128-20.566,20.566c-5.063-8.438-12.128-15.503-20.566-20.566
		C90.142,55.225,97.207,48.159,102.27,39.722z"/>
	
		<linearGradient id="SVGID_2_" gradientUnits="userSpaceOnUse" x1="19.115" y1="615.6135" x2="-45.733" y2="615.6135" gradientTransform="matrix(8.5228 0 0 -8.5228 368.6503 5426.3701)">
		<stop  offset="0" style="stop-color:#4761AC"/>
		<stop  offset="1" style="stop-color:#54C2EF"/>
	</linearGradient>
	<path style="fill:url(#SVGID_2_);" d="M332.386,308.455c71.157,0.009,128.848-57.682,128.857-128.839S403.56,50.767,332.403,50.759
		s-128.848,57.682-128.857,128.839v0.009C203.623,250.738,261.254,308.378,332.386,308.455z M332.386,67.804
		c61.748-0.009,111.802,50.046,111.811,111.794S394.151,291.4,332.403,291.409c-61.748,0.009-111.811-50.046-111.811-111.794v-0.009
		C220.66,117.893,270.672,67.881,332.386,67.804z"/>
	
		<linearGradient id="SVGID_3_" gradientUnits="userSpaceOnUse" x1="19.115" y1="620.1135" x2="-45.733" y2="620.1135" gradientTransform="matrix(8.5228 0 0 -8.5228 368.6503 5426.3701)">
		<stop  offset="0" style="stop-color:#4761AC"/>
		<stop  offset="1" style="stop-color:#54C2EF"/>
	</linearGradient>
	<path style="fill:url(#SVGID_3_);" d="M264.203,179.607c0.043-37.637,30.546-68.14,68.183-68.183c4.705,0,8.523-3.818,8.523-8.523
		s-3.818-8.523-8.523-8.523c-47.046,0.051-85.177,38.182-85.228,85.228c0,4.705,3.818,8.523,8.523,8.523
		C260.385,188.129,264.203,184.311,264.203,179.607z"/>
	
		<linearGradient id="SVGID_4_" gradientUnits="userSpaceOnUse" x1="19.115" y1="606.6505" x2="-45.733" y2="606.6505" gradientTransform="matrix(8.5228 0 0 -8.5228 368.6503 5426.3701)">
		<stop  offset="0" style="stop-color:#4761AC"/>
		<stop  offset="1" style="stop-color:#54C2EF"/>
	</linearGradient>
	<path style="fill:url(#SVGID_4_);" d="M36.584,509.499c3.332,3.324,8.719,3.324,12.051,0l182.474-182.448
		c81.598,56.097,193.221,35.429,249.318-46.168s35.429-193.221-46.168-249.318S241.038-3.864,184.941,77.733
		c-42.069,61.185-42.069,141.965,0,203.15L2.493,463.357c-3.324,3.324-3.324,8.727,0,12.051L36.584,509.499z M332.386,17.673
		c89.43,0,161.934,72.504,161.934,161.934S421.816,341.54,332.386,341.54s-161.934-72.504-161.934-161.934
		C170.546,90.219,242.99,17.775,332.386,17.673z M217.43,316.602L85.224,448.808l-22.04-22.04L195.39,294.562
		C202.089,302.531,209.461,309.903,217.43,316.602z M51.133,438.82l22.04,22.04L42.61,491.423l-22.04-22.04L51.133,438.82z"/>
	
		<linearGradient id="SVGID_5_" gradientUnits="userSpaceOnUse" x1="19.115" y1="587.6135" x2="-45.733" y2="587.6135" gradientTransform="matrix(8.5228 0 0 -8.5228 368.6503 5426.3701)">
		<stop  offset="0" style="stop-color:#4761AC"/>
		<stop  offset="1" style="stop-color:#54C2EF"/>
	</linearGradient>
	<path style="fill:url(#SVGID_5_);" d="M451.705,409.723c-14.122,0-25.568-11.446-25.568-25.568c0-4.705-3.818-8.523-8.523-8.523
		s-8.523,3.818-8.523,8.523c0,14.122-11.446,25.568-25.568,25.568c-4.705,0-8.523,3.818-8.523,8.523
		c0,4.705,3.818,8.523,8.523,8.523c14.122,0,25.568,11.446,25.568,25.568c0,4.705,3.818,8.523,8.523,8.523s8.523-3.818,8.523-8.523
		c0-14.122,11.446-25.568,25.568-25.568c4.705,0,8.523-3.818,8.523-8.523C460.228,413.541,456.41,409.723,451.705,409.723z
		 M417.614,427.033c-2.48-3.341-5.446-6.307-8.787-8.787c3.341-2.48,6.307-5.446,8.787-8.787c2.48,3.341,5.446,6.307,8.787,8.787
		C423.052,420.734,420.094,423.692,417.614,427.033z"/>
</g>
<g>
</g>
<g>
</g>
<g>
</g>
<g>
</g>
<g>
</g>
<g>
</g>
<g>
</g>
<g>
</g>
<g>
</g>
<g>
</g>
<g>
</g>
<g>
</g>
<g>
</g>
<g>
</g>
<g>
</g>
</svg>
