<svg height="480pt" viewBox="0 -104 480 480" width="480pt" xmlns="http://www.w3.org/2000/svg" xmlns:xlink="http://www.w3.org/1999/xlink"><linearGradient id="a" gradientUnits="userSpaceOnUse" x1="0" x2="517.04" y1="136" y2="136"><stop offset="0" stop-color="#f9a86d"/><stop offset=".503" stop-color="#f05361"/><stop offset="1" stop-color="#b72563"/></linearGradient><path d="m472 0h-384c-4.417969 0-8 3.582031-8 8v24h-24c-4.417969 0-8 3.582031-8 8v24h-40c-4.417969 0-8 3.582031-8 8v192c0 4.417969 3.582031 8 8 8h384c4.417969 0 8-3.582031 8-8v-24h40c4.417969 0 8-3.582031 8-8v-24h24c4.417969 0 8-3.582031 8-8v-192c0-4.417969-3.582031-8-8-8zm-152 80c.011719 5.453125.957031 10.867188 2.800781 16h-245.601562c1.839843-5.132812 2.785156-10.546875 2.800781-16zm64 128h-16v-80h16zm-51.679688 16h-124.320312v-16h8c4.417969 0 8-3.582031 8-8v-32c0-4.417969-3.582031-8-8-8h-24v-16h32v-16h-16v-16h124.320312c5.355469 5.972656 12.121094 10.507812 19.679688 13.199219v85.601562c-7.558594 2.691407-14.324219 7.226563-19.679688 13.199219zm-284.320312-13.199219v-85.601562c7.554688-2.6875 14.320312-7.226563 19.671875-13.199219h124.328125v16h-8c-4.417969 0-8 3.582031-8 8v32c0 4.417969 3.582031 8 8 8h24v16h-32v16h16v16h-124.328125c-5.351563-5.972656-12.117187-10.511719-19.671875-13.199219zm-16-2.800781h-16v-80h16zm352-96h-16c-17.671875 0-32-14.328125-32-32h48zm-368-32h48c0 17.671875-14.328125 32-32 32h-16zm0 176v-32h16c17.671875 0 32 14.328125 32 32zm61.199219-16h245.601562c-1.84375 5.132812-2.789062 10.546875-2.800781 16h-240c-.015625-5.453125-.960938-10.867188-2.800781-16zm306.800781 16h-48c0-17.671875 14.328125-32 32-32h16zm48-32h-32v-152c0-4.417969-3.582031-8-8-8h-328v-16h368zm32-32h-16v-152c0-4.417969-3.582031-8-8-8h-344v-16h368zm0 0" fill="url(#a)"/></svg>