<?xml version="1.0" encoding="iso-8859-1"?>
<!-- Generator: Adobe Illustrator 19.0.0, SVG Export Plug-In . SVG Version: 6.00 Build 0)  -->
<svg version="1.1" id="Capa_1" xmlns="http://www.w3.org/2000/svg" xmlns:xlink="http://www.w3.org/1999/xlink" x="0px" y="0px"
	 viewBox="0 0 480 480" style="enable-background:new 0 0 480 480;" xml:space="preserve">
<linearGradient id="SVGID_1_" gradientUnits="userSpaceOnUse" x1="-56.875" y1="592.625" x2="2.986" y2="592.625" gradientTransform="matrix(8 0 0 -8 455 4941)">
	<stop  offset="0" style="stop-color:#4761AC"/>
	<stop  offset="1" style="stop-color:#54C2EF"/>
</linearGradient>
<path style="fill:url(#SVGID_1_);" d="M176,240h128v-80H176V240z M192,176h40v32h16v-32h40v48h-96V176z"/>
<g>
	
		<linearGradient id="SVGID_2_" gradientUnits="userSpaceOnUse" x1="-56.875" y1="608.625" x2="2.986" y2="608.625" gradientTransform="matrix(8 0 0 -8 455 4941)">
		<stop  offset="0" style="stop-color:#4761AC"/>
		<stop  offset="1" style="stop-color:#54C2EF"/>
	</linearGradient>
	<path style="fill:url(#SVGID_2_);" d="M240,144c22.08-0.026,39.974-17.92,40-40V64h16v-8c0-30.928-25.072-56-56-56
		s-56,25.072-56,56v8h16v40C200.026,126.08,217.92,143.974,240,144z M264,104c0,13.255-10.745,24-24,24c-13.255,0-24-10.745-24-24
		V64h48V104z M240,16c19.002,0.021,35.375,13.387,39.2,32h-78.4C204.625,29.387,220.998,16.021,240,16L240,16z"/>
	
		<linearGradient id="SVGID_3_" gradientUnits="userSpaceOnUse" x1="-56.875" y1="604.625" x2="2.986" y2="604.625" gradientTransform="matrix(8 0 0 -8 455 4941)">
		<stop  offset="0" style="stop-color:#4761AC"/>
		<stop  offset="1" style="stop-color:#54C2EF"/>
	</linearGradient>
	<path style="fill:url(#SVGID_3_);" d="M232,96h16v16h-16V96z"/>
	
		<linearGradient id="SVGID_4_" gradientUnits="userSpaceOnUse" x1="-56.875" y1="569.625" x2="2.986" y2="569.625" gradientTransform="matrix(8 0 0 -8 455 4941)">
		<stop  offset="0" style="stop-color:#4761AC"/>
		<stop  offset="1" style="stop-color:#54C2EF"/>
	</linearGradient>
	<path style="fill:url(#SVGID_4_);" d="M16,344v8h16v40c0.029,8.684,2.914,17.117,8.208,24H32v64h80v-64h-8.208
		c5.294-6.883,8.179-15.316,8.208-24v-40h16v-8c0-30.928-25.072-56-56-56S16,313.072,16,344L16,344z M96,464H48v-32h48V464z M96,392
		c0,13.255-10.745,24-24,24s-24-10.745-24-24v-40h48V392z M72,304c19.002,0.021,35.375,13.387,39.2,32H32.8
		C36.625,317.387,52.998,304.021,72,304z"/>
	
		<linearGradient id="SVGID_5_" gradientUnits="userSpaceOnUse" x1="-56.875" y1="568.625" x2="2.986" y2="568.625" gradientTransform="matrix(8 0 0 -8 455 4941)">
		<stop  offset="0" style="stop-color:#4761AC"/>
		<stop  offset="1" style="stop-color:#54C2EF"/>
	</linearGradient>
	<path style="fill:url(#SVGID_5_);" d="M64,384h16v16H64V384z"/>
	
		<linearGradient id="SVGID_6_" gradientUnits="userSpaceOnUse" x1="-56.875" y1="569.625" x2="2.986" y2="569.625" gradientTransform="matrix(8 0 0 -8 455 4941)">
		<stop  offset="0" style="stop-color:#4761AC"/>
		<stop  offset="1" style="stop-color:#54C2EF"/>
	</linearGradient>
	<path style="fill:url(#SVGID_6_);" d="M296,344c0-30.928-25.072-56-56-56s-56,25.072-56,56l0,0v8h16v40
		c0.029,8.684,2.914,17.117,8.208,24H200v64h80v-64h-8.208c5.294-6.883,8.179-15.316,8.208-24v-40h16V344z M240,304
		c19.002,0.021,35.375,13.387,39.2,32h-78.4C204.625,317.387,220.998,304.021,240,304L240,304z M264,464h-48v-32h48V464z M264,392
		c0,13.255-10.745,24-24,24c-13.255,0-24-10.745-24-24v-40h48V392z"/>
	
		<linearGradient id="SVGID_7_" gradientUnits="userSpaceOnUse" x1="-56.875" y1="568.625" x2="2.986" y2="568.625" gradientTransform="matrix(8 0 0 -8 455 4941)">
		<stop  offset="0" style="stop-color:#4761AC"/>
		<stop  offset="1" style="stop-color:#54C2EF"/>
	</linearGradient>
	<path style="fill:url(#SVGID_7_);" d="M232,384h16v16h-16V384z"/>
	
		<linearGradient id="SVGID_8_" gradientUnits="userSpaceOnUse" x1="-56.875" y1="569.625" x2="2.986" y2="569.625" gradientTransform="matrix(8 0 0 -8 455 4941)">
		<stop  offset="0" style="stop-color:#4761AC"/>
		<stop  offset="1" style="stop-color:#54C2EF"/>
	</linearGradient>
	<path style="fill:url(#SVGID_8_);" d="M448,352h16v-8c0-30.928-25.072-56-56-56s-56,25.072-56,56l0,0v8h16v40
		c0.029,8.684,2.914,17.117,8.208,24H368v64h80v-64h-8.208c5.294-6.883,8.179-15.316,8.208-24V352z M408,304
		c19.002,0.021,35.375,13.387,39.2,32h-78.4C372.625,317.387,388.998,304.021,408,304L408,304z M432,464h-48v-32h48V464z M384,392
		v-40h48v40c0,13.255-10.745,24-24,24S384,405.255,384,392z"/>
	
		<linearGradient id="SVGID_9_" gradientUnits="userSpaceOnUse" x1="-56.875" y1="568.625" x2="2.986" y2="568.625" gradientTransform="matrix(8 0 0 -8 455 4941)">
		<stop  offset="0" style="stop-color:#4761AC"/>
		<stop  offset="1" style="stop-color:#54C2EF"/>
	</linearGradient>
	<path style="fill:url(#SVGID_9_);" d="M400,384h16v16h-16V384z"/>
</g>
<g>
	
		<linearGradient id="SVGID_10_" gradientUnits="userSpaceOnUse" x1="-56.875" y1="592.625" x2="2.986" y2="592.625" gradientTransform="matrix(8 0 0 -8 455 4941)">
		<stop  offset="0" style="stop-color:#4761AC"/>
		<stop  offset="1" style="stop-color:#54C2EF"/>
	</linearGradient>
	<path style="fill:url(#SVGID_10_);" d="M80,176h48v-16H64v80h16V176z"/>
	
		<linearGradient id="SVGID_11_" gradientUnits="userSpaceOnUse" x1="-56.875" y1="592.625" x2="2.986" y2="592.625" gradientTransform="matrix(8 0 0 -8 455 4941)">
		<stop  offset="0" style="stop-color:#4761AC"/>
		<stop  offset="1" style="stop-color:#54C2EF"/>
	</linearGradient>
	<path style="fill:url(#SVGID_11_);" d="M352,176h48v64h16v-80h-64V176z"/>
</g>
<g>
	
		<linearGradient id="SVGID_12_" gradientUnits="userSpaceOnUse" x1="-56.875" y1="584.625" x2="2.986" y2="584.625" gradientTransform="matrix(8 0 0 -8 455 4941)">
		<stop  offset="0" style="stop-color:#4761AC"/>
		<stop  offset="1" style="stop-color:#54C2EF"/>
	</linearGradient>
	<path style="fill:url(#SVGID_12_);" d="M232,256h16v16h-16V256z"/>
	
		<linearGradient id="SVGID_13_" gradientUnits="userSpaceOnUse" x1="-56.875" y1="584.625" x2="2.986" y2="584.625" gradientTransform="matrix(8 0 0 -8 455 4941)">
		<stop  offset="0" style="stop-color:#4761AC"/>
		<stop  offset="1" style="stop-color:#54C2EF"/>
	</linearGradient>
	<path style="fill:url(#SVGID_13_);" d="M400,256h16v16h-16V256z"/>
	
		<linearGradient id="SVGID_14_" gradientUnits="userSpaceOnUse" x1="-56.875" y1="584.625" x2="2.986" y2="584.625" gradientTransform="matrix(8 0 0 -8 455 4941)">
		<stop  offset="0" style="stop-color:#4761AC"/>
		<stop  offset="1" style="stop-color:#54C2EF"/>
	</linearGradient>
	<path style="fill:url(#SVGID_14_);" d="M64,256h16v16H64V256z"/>
</g>
<g>
	
		<linearGradient id="SVGID_15_" gradientUnits="userSpaceOnUse" x1="-56.875" y1="596.625" x2="2.986" y2="596.625" gradientTransform="matrix(8 0 0 -8 455 4941)">
		<stop  offset="0" style="stop-color:#4761AC"/>
		<stop  offset="1" style="stop-color:#54C2EF"/>
	</linearGradient>
	<path style="fill:url(#SVGID_15_);" d="M144,160h16v16h-16V160z"/>
	
		<linearGradient id="SVGID_16_" gradientUnits="userSpaceOnUse" x1="-56.875" y1="596.625" x2="2.986" y2="596.625" gradientTransform="matrix(8 0 0 -8 455 4941)">
		<stop  offset="0" style="stop-color:#4761AC"/>
		<stop  offset="1" style="stop-color:#54C2EF"/>
	</linearGradient>
	<path style="fill:url(#SVGID_16_);" d="M320,160h16v16h-16V160z"/>
</g>
<g>
</g>
<g>
</g>
<g>
</g>
<g>
</g>
<g>
</g>
<g>
</g>
<g>
</g>
<g>
</g>
<g>
</g>
<g>
</g>
<g>
</g>
<g>
</g>
<g>
</g>
<g>
</g>
<g>
</g>
</svg>
