<svg height="480.00305pt" viewBox="0 0 480.00305 480.00305" width="480.00305pt" xmlns="http://www.w3.org/2000/svg" xmlns:xlink="http://www.w3.org/1999/xlink"><linearGradient id="a"><stop offset="0" stop-color="#20d6de"/><stop offset="1" stop-color="#5e309d"/></linearGradient><linearGradient id="b" gradientUnits="userSpaceOnUse" x1="-7.996954" x2="483.203046" xlink:href="#a" y1="216" y2="216"/><linearGradient id="c" gradientUnits="userSpaceOnUse" x1="-7.996954" x2="483.203046" xlink:href="#a" y1="264" y2="264"/><linearGradient id="d" gradientUnits="userSpaceOnUse" x1="-7.996954" x2="483.203046" xlink:href="#a" y1="240" y2="240"/><path d="m176.003906 208h48v16h-48zm0 0" fill="url(#b)"/><path d="m240.003906 208h120v16h-120zm0 0" fill="url(#b)"/><path d="m240.003906 256h72v16h-72zm0 0" fill="url(#c)"/><path d="m472.003906 48h-80c0-26.507812-21.492187-48-48-48-26.511718 0-48 21.492188-48 48h-119.90625l-73.542968-20c-4.257813-1.160156-8.648438 1.347656-9.816407 5.601562l-92.457031 339.636719c-1.164062 4.261719 1.34375 8.65625 5.601562 9.824219l90.121094 24.53125v.40625c0 4.417969 3.582032 8 8 8h22.902344l234.074219 63.71875c4.257812 1.164062 8.652343-1.339844 9.824219-5.597656l15.8125-58.121094h85.386718c4.417969 0 8-3.582031 8-8v-352c0-4.417969-3.582031-8-8-8zm-128-32c17.671875 0 32 14.328125 32 32s-14.328125 32-32 32c-17.675781 0-32-14.328125-32-32s14.324219-32 32-32zm-28.800781 70.398438c.609375.457031 1.28125.800781 1.894531 1.203124l-69.09375 69.085938-12.6875-12.6875 69.007813-69.007812c2.976562 4.371093 6.652343 8.226562 10.878906 11.40625zm-200-38.398438h-9.808594l.679688-2.480469zm-19.199219 34.519531v308.488281l-78.175781-21.28125zm261.464844 379.65625-169.648438-46.175781h182.214844zm106.535156-62.175781h-352v-336h180.6875l-74.34375 74.34375c-3.125 3.125-3.125 8.1875 0 11.3125l24 24c3.125 3.121094 8.1875 3.121094 11.3125 0l79.144532-79.128906c23.886718 6.121094 48.460937-7.179688 56.398437-30.527344h74.800781zm0 0" fill="url(#d)"/></svg>