<svg height="480pt" viewBox="0 -104 480 480" width="480pt" xmlns="http://www.w3.org/2000/svg" xmlns:xlink="http://www.w3.org/1999/xlink"><linearGradient id="a"><stop offset="0" stop-color="#f9a86d"/><stop offset=".503" stop-color="#f05361"/><stop offset="1" stop-color="#b72563"/></linearGradient><linearGradient id="b" gradientUnits="userSpaceOnUse" x1="-8" x2="457.72" xlink:href="#a" y1="64" y2="64"/><linearGradient id="c" gradientUnits="userSpaceOnUse" x1="-8" x2="457.72" xlink:href="#a" y1="168" y2="168"/><linearGradient id="d" gradientUnits="userSpaceOnUse" x1="-8" x2="457.72" xlink:href="#a" y1="200" y2="200"/><linearGradient id="e" gradientUnits="userSpaceOnUse" x1="-8" x2="457.72" xlink:href="#a" y1="136" y2="136"/><path d="m48 56h8c4.417969 0 8 3.582031 8 8s-3.582031 8-8 8h-8v24h128v-24h-8c-4.417969 0-8-3.582031-8-8s3.582031-8 8-8h8v-24h-128zm25.871094-8h76.257812c-8.171875 9.101562-8.171875 22.898438 0 32h-76.257812c8.171875-9.101562 8.171875-22.898438 0-32zm0 0" fill="url(#b)"/><path d="m168 160h-112c-4.417969 0-8 3.582031-8 8s3.582031 8 8 8h112c4.417969 0 8-3.582031 8-8s-3.582031-8-8-8zm0 0" fill="url(#c)"/><path d="m168 192h-112c-4.417969 0-8 3.582031-8 8s3.582031 8 8 8h112c4.417969 0 8-3.582031 8-8s-3.582031-8-8-8zm0 0" fill="url(#d)"/><g fill="url(#e)"><path d="m56 144h32c4.417969 0 8-3.582031 8-8s-3.582031-8-8-8h-32c-4.417969 0-8 3.582031-8 8s3.582031 8 8 8zm0 0"/><path d="m0 0v272h480v-272zm264 200h-35.871094c2.980469-3.515625 6.140625-6.875 9.472656-10.0625 9.03125-8.9375 18.398438-18.175781 18.398438-29.441406s-9.3125-20.800782-18.3125-29.871094c-3.449219-3.359375-6.710938-6.90625-9.765625-10.625h36.078125c19 .023438 35.371094 13.386719 39.199219 32h-31.199219v16h31.199219c-3.828125 18.613281-20.199219 31.976562-39.199219 32zm-248 56v-240h280v98.113281c-9.371094-6.585937-20.546875-10.117187-32-10.113281h-56v8c0 11.375 9.3125 20.800781 18.3125 29.871094 6.09375 6.167968 13.6875 13.839844 13.6875 18.625 0 4.582031-7.550781 12.054687-13.601562 18.0625-9.0625 8.945312-18.398438 18.183594-18.398438 29.441406v8h56c11.453125.003906 22.628906-3.527344 32-10.113281v50.113281zm296 0v-67.304688c10.667969-17.644531 10.667969-39.746093 0-57.390624v-115.304688h16v115.304688c-10.667969 17.644531-10.667969 39.746093 0 57.390624v67.304688zm90.398438-66.0625c3.332031 3.1875 6.492187 6.546875 9.472656 10.0625h-35.871094c-19-.023438-35.371094-13.386719-39.199219-32h31.199219v-16h-31.199219c3.828125-18.613281 20.199219-31.976562 39.199219-32h36.078125c-3.054687 3.71875-6.316406 7.265625-9.765625 10.625-9 9.09375-18.3125 18.503906-18.3125 29.871094 0 11.367187 9.335938 20.503906 18.398438 29.441406zm61.601562-173.9375v240h-120v-50.113281c9.371094 6.585937 20.546875 10.117187 32 10.113281h56v-8c0-11.257812-9.335938-20.496094-18.398438-29.441406-6.082031-6.007813-13.601562-13.480469-13.601562-18.0625 0-4.800782 7.59375-12.457032 13.6875-18.625 9-9.070313 18.3125-18.496094 18.3125-29.871094v-8h-56c-11.453125-.003906-22.628906 3.527344-32 10.113281v-98.113281zm0 0"/></g></svg>